General
Complete name                    : Saving Private Ryan.mkv
Format                           : Matroska
File size                        : 2.46 GiB
Duration                         : 2h 42mn
Overall bit rate                 : 2 171 Kbps
Encoded date                     : UTC 2010-06-20 15:05:52
Writing application              : mkvmerge v4.0.0 ('The Stars were mine') built on Jun  6 2010 16:18:42
Writing library                  : libebml v1.0.0 + libmatroska v1.0.0

Video
ID                               : 1
Format                           : MPEG Video
Format version                   : Version 2
Format profile                   : Main@Main
Format settings, BVOP            : No
Format settings, Matrix          : Default
Codec ID                         : V_MPEG2
Codec ID/Info                    : MPEG 1 or 2 Video
Duration                         : 2h 42mn
Bit rate mode                    : Variable
Bit rate                         : 1 936 Kbps
Nominal bit rate                 : 3 000 Kbps
Width                            : 720 pixels
Height                           : 576 pixels
Display aspect ratio             : 16:9
Frame rate                       : 50.000 fps
Original frame rate              : 25.000 fps
Standard                         : PAL
Color space                      : YUV
Chroma subsampling               : 4:2:0
Bit depth                        : 8 bits
Scan type                        : Interlaced
Scan order                       : Top Field First
Bits/(Pixel*Frame)               : 0.093
Stream size                      : 2.20 GiB (89%)

Audio
ID                               : 2
Format                           : MPEG Audio
Format version                   : Version 1
Format profile                   : Layer 3
Mode                             : Joint stereo
Codec ID                         : A_MPEG/L3
Codec ID/Hint                    : MP3
Duration                         : 2h 42mn
Bit rate mode                    : Constant
Bit rate                         : 192 Kbps
Channel(s)                       : 2 channels
Sampling rate                    : 44.1 KHz
Video delay                      : -187ms
Stream size                      : 223 MiB (9%)
Writing library                  : LAME3.97

Screenshots:
 
http://img153.imageshack.us/img153/6521/savingprivateryanmkvsna.jpg
 
http://img149.imageshack.us/img149/6521/savingprivateryanmkvsna.jpg
 
http://img717.imageshack.us/img717/6521/savingprivateryanmkvsna.jpg
 
http://img541.imageshack.us/img541/6521/savingprivateryanmkvsna.jpg
 
http://img694.imageshack.us/img694/6521/savingprivateryanmkvsna.jpg
 
http://img143.imageshack.us/img143/7495/savingprivateryanmkvthu.jpg
